HIERARCHY
ROOT Hips
{
	OFFSET 0.000000 0.000000 0.000000
	CHANNELS 6 Xposition Yposition Zposition Zrotation Yrotation Xrotation 
	JOINT LHipJoint
	{
		OFFSET 0.000000 0.000000 0.000000
		CHANNELS 3 Zrotation Yrotation Xrotation
		JOINT LeftUpLeg
		{
			OFFSET 1.363060 -1.794630 0.839290
			CHANNELS 3 Zrotation Yrotation Xrotation
			JOINT LeftLeg
			{
				OFFSET 2.448110 -6.726130 0.000000
				CHANNELS 3 Zrotation Yrotation Xrotation
				JOINT LeftFoot
				{
					OFFSET 2.562200 -7.039590 0.000000
					CHANNELS 3 Zrotation Yrotation Xrotation
					JOINT LeftToeBase
					{
						OFFSET 0.157640 -0.433110 2.322550
						CHANNELS 3 Zrotation Yrotation Xrotation
						End Site
						{
							OFFSET 0.000000 0.000000 0.000000
						}
					}
				}
			}
		}
	}
	JOINT RHipJoint
	{
		OFFSET 0.000000 0.000000 0.000000
		CHANNELS 3 Zrotation Yrotation Xrotation
		JOINT RightUpLeg
		{
			OFFSET -1.305520 -1.794630 0.839290
			CHANNELS 3 Zrotation Yrotation Xrotation
			JOINT RightLeg
			{
				OFFSET -2.542530 -6.985550 0.000000
				CHANNELS 3 Zrotation Yrotation Xrotation
				JOINT RightFoot
				{
					OFFSET -2.568260 -7.056230 0.000000
					CHANNELS 3 Zrotation Yrotation Xrotation
					JOINT RightToeBase
					{
						OFFSET -0.164730 -0.452590 2.363150
						CHANNELS 3 Zrotation Yrotation Xrotation
						End Site
						{
							OFFSET 0.000000 0.000000 0.000000
						}
					}
				}
			}
		}
	}
	JOINT LowerBack
	{
		OFFSET 0.000000 0.000000 0.000000
		CHANNELS 3 Zrotation Yrotation Xrotation
		JOINT Spine
		{
			OFFSET 0.028270 2.035590 -0.193380
			CHANNELS 3 Zrotation Yrotation Xrotation
			JOINT Spine1
			{
				OFFSET 0.056720 2.048850 -0.042750
				CHANNELS 3 Zrotation Yrotation Xrotation
				JOINT Neck
				{
					OFFSET 0.000000 0.000000 0.000000
					CHANNELS 3 Zrotation Yrotation Xrotation
					JOINT Neck1
					{
						OFFSET -0.054170 1.746240 0.172020
						CHANNELS 3 Zrotation Yrotation Xrotation
						JOINT Head
						{
							OFFSET 0.104070 1.761360 -0.123970
							CHANNELS 3 Zrotation Yrotation Xrotation
							End Site
							{
								OFFSET 0.000000 0.000000 0.000000
							}
						}
					}
				}
				JOINT LeftShoulder
				{
					OFFSET 0.000000 0.000000 0.000000
					CHANNELS 3 Zrotation Yrotation Xrotation
					JOINT LeftArm
					{
						OFFSET 3.362410 1.200890 -0.311210
						CHANNELS 3 Zrotation Yrotation Xrotation
						JOINT LeftForeArm
						{
							OFFSET 4.983000 -0.000000 -0.000000
							CHANNELS 3 Zrotation Yrotation Xrotation
							JOINT LeftHand
							{
								OFFSET 3.483560 -0.000000 -0.000000
								CHANNELS 3 Zrotation Yrotation Xrotation
								JOINT LeftFingerBase
								{
									OFFSET 0.000000 0.000000 0.000000
									CHANNELS 3 Zrotation Yrotation Xrotation
									JOINT LeftHandIndex1
									{
										OFFSET 0.715260 -0.000000 -0.000000
										CHANNELS 3 Zrotation Yrotation Xrotation
										End Site
										{
											OFFSET 0.000000 0.000000 0.000000
										}
									}
								}
								JOINT LThumb
								{
									OFFSET 0.000000 0.000000 0.000000
									CHANNELS 3 Zrotation Yrotation Xrotation
									End Site
									{
										OFFSET 0.000000 0.000000 0.000000
									}
								}
							}
						}
					}
				}
				JOINT RightShoulder
				{
					OFFSET 0.000000 0.000000 0.000000
					CHANNELS 3 Zrotation Yrotation Xrotation
					JOINT RightArm
					{
						OFFSET -3.136600 1.374050 -0.404650
						CHANNELS 3 Zrotation Yrotation Xrotation
						JOINT RightForeArm
						{
							OFFSET -5.241900 -0.000000 -0.000000
							CHANNELS 3 Zrotation Yrotation Xrotation
							JOINT RightHand
							{
								OFFSET -3.444170 -0.000000 -0.000000
								CHANNELS 3 Zrotation Yrotation Xrotation
								JOINT RightFingerBase
								{
									OFFSET 0.000000 0.000000 0.000000
									CHANNELS 3 Zrotation Yrotation Xrotation
									JOINT RightHandIndex1
									{
										OFFSET -0.622530 -0.000000 -0.000000
										CHANNELS 3 Zrotation Yrotation Xrotation
										End Site
										{
											OFFSET 0.000000 0.000000 0.000000
										}
									}
								}
								JOINT RThumb
								{
									OFFSET 0.000000 0.000000 0.000000
									CHANNELS 3 Zrotation Yrotation Xrotation
									End Site
									{
										OFFSET 0.000000 0.000000 0.000000
									}
								}
							}
						}
					}
				}
			}
		}
	}
}
MOTION
Frames: 10
Frame Time: 0.008333
-6.292125 17.297450 -23.117850 -4.854117 89.984817 4.821457 5.634500 17.330151 1.426245 -26.111793 -10.869250 -5.856669 0.003700 -0.921806 12.593859 20.212003 -0.600102 -4.167677 -1.382620 -0.509348 -7.157741 -5.467727 -14.323257 2.796937 23.090606 10.380974 -4.346960 1.651619 0.675607 6.855935 -17.188261 2.296092 -9.128377 2.143671 -1.135926 -6.545770 5.098881 -3.149241 -0.970822 -3.547059 -3.822375 7.499998 -2.237016 4.824960 -15.963109 -3.348657 -0.985552 -9.985529 3.527068 -1.443053 5.688291 -2.567452 1.135686 -14.683558 18.398291 24.873043 -0.825104 -35.142292 -13.561278 12.373336 10.427958 -7.456810 14.340435 4.575467 4.551897 7.484575 3.720801 11.166542 -0.000000 0.000000 0.000000 0.000000 0.000000 0.000000 0.000000 -16.369194 -20.314653 -5.266167 34.554630 9.783986 1.964359 -10.618279 8.855066 6.967534 -2.042333 2.935982 3.433284 -1.755336 -10.193483 0.000000 0.000000 0.000000 0.000000 0.000000 0.000000 0.000000 
-6.291780 17.297450 -23.116950 175.121631 89.900069 -175.176471 5.624417 17.237501 1.377976 -26.101253 -10.895169 -5.839343 0.002891 -0.920872 12.594078 20.191815 -0.594763 -4.158724 -1.379665 -0.512569 -7.154683 -5.470792 -14.402551 2.808272 23.104771 10.353134 -4.378922 1.653556 0.675633 6.851366 -17.196647 2.301521 -9.128733 2.147715 -1.142819 -6.537600 5.087667 -3.126656 -0.930976 -3.540959 -3.795982 7.481418 -2.351497 4.933476 -16.183834 -3.254696 -1.139161 -9.804134 3.479579 -1.596204 5.636590 -2.589768 1.106290 -14.716915 18.238662 25.370797 -1.158615 -34.936761 -14.749739 13.029660 10.054564 -6.787666 14.545676 4.553559 4.567027 7.587417 3.678815 11.178371 -0.000000 0.000000 0.000000 0.000000 0.000000 0.000000 0.000000 -16.388201 -20.507860 -5.212702 34.546702 9.612411 2.021845 -10.577701 8.891782 7.024098 -2.044884 2.937339 3.464050 -1.753967 -10.190760 0.000000 0.000000 0.000000 0.000000 0.000000 0.000000 0.000000 
-6.291285 17.297750 -23.116500 -4.855146 89.989990 4.821929 5.629584 17.324494 1.433113 -26.097793 -10.874198 -5.864376 0.000738 -0.921854 12.589601 20.206731 -0.595910 -4.166434 -1.380408 -0.510499 -7.156522 -5.474207 -14.327149 2.791854 23.103737 10.370878 -4.331440 1.653088 0.680331 6.841697 -17.201211 2.305576 -9.117005 2.142690 -1.137227 -6.538305 5.086358 -3.143548 -0.971182 -3.539884 -3.814996 7.508532 -2.238973 4.817016 -15.982989 -3.348295 -0.988650 -9.968746 3.522226 -1.445628 5.706748 -2.567923 1.139142 -14.671938 18.393862 24.883047 -0.850793 -35.136755 -13.612472 12.383815 10.402537 -7.372831 14.375771 4.569242 4.580498 7.496942 3.713866 11.172803 -0.000000 0.000000 0.000000 0.000000 0.000000 0.000000 0.000000 -16.367417 -20.323880 -5.271911 34.571105 9.786591 1.955733 -10.615145 8.855616 6.979848 -2.037477 2.952025 3.435523 -1.749930 -10.189395 0.000000 0.000000 0.000000 0.000000 0.000000 0.000000 0.000000 
-6.292305 17.297150 -23.115300 175.117118 89.884383 -175.172749 5.605501 17.232427 1.385059 -26.076422 -10.913638 -5.871390 0.003076 -0.915698 12.609800 20.185157 -0.583828 -4.190431 -1.370439 -0.515673 -7.151501 -5.486495 -14.411774 2.782105 23.136729 10.329880 -4.352512 1.651347 0.674030 6.837942 -17.226844 2.307394 -9.119502 2.151025 -1.143712 -6.543359 5.066038 -3.113166 -0.905180 -3.503663 -3.778825 7.447073 -2.362147 4.892834 -16.159889 -3.261476 -1.143347 -9.814203 3.474439 -1.597838 5.657919 -2.590329 1.112424 -14.706524 18.239173 25.346275 -1.116805 -34.896604 -14.692777 13.044718 10.056104 -6.893499 14.473876 4.514568 4.539962 7.539808 3.642779 11.176657 -0.000000 0.000000 0.000000 0.000000 0.000000 0.000000 0.000000 -16.399537 -20.520223 -5.223238 34.581029 9.621962 2.007792 -10.574982 8.889366 7.039597 -2.041860 2.963247 3.467344 -1.750254 -10.184720 0.000000 0.000000 0.000000 0.000000 0.000000 0.000000 0.000000 
-6.290220 17.297900 -23.115450 -4.858810 89.996770 4.824438 5.633266 17.324243 1.432226 -26.102848 -10.874920 -5.859956 0.001411 -0.925149 12.577904 20.196675 -0.589357 -4.151636 -1.389200 -0.509112 -7.166329 -5.470114 -14.321563 2.788937 23.099210 10.363551 -4.325670 1.657636 0.677793 6.822925 -17.195064 2.303339 -9.112385 2.145029 -1.137391 -6.541163 5.089080 -3.155045 -0.966140 -3.553731 -3.826558 7.510941 -2.237203 4.833097 -15.999686 -3.351067 -0.979968 -9.969392 3.528401 -1.437771 5.732809 -2.565920 1.136758 -14.657626 18.384485 24.902985 -0.844141 -35.099932 -13.608242 12.399092 10.419303 -7.434110 14.353958 4.582283 4.594020 7.497346 3.725825 11.174002 -0.000000 0.000000 0.000000 0.000000 0.000000 0.000000 0.000000 -16.350608 -20.340559 -5.292371 34.578001 9.809822 1.960212 -10.614790 8.846324 7.002913 -2.032000 2.972820 3.444638 -1.743258 -10.186821 0.000000 0.000000 0.000000 0.000000 0.000000 0.000000 0.000000 
-6.289320 17.297600 -23.114700 175.118250 89.883696 -175.174533 5.625093 17.239405 1.380184 -26.097827 -10.888762 -5.836325 0.000577 -0.920169 12.577788 20.188588 -0.591121 -4.159164 -1.386133 -0.515287 -7.171474 -5.471486 -14.398282 2.806185 23.107504 10.337627 -4.356969 1.659594 0.677374 6.811454 -17.218110 2.304349 -9.111075 2.146874 -1.139887 -6.543529 5.086986 -3.133506 -0.929491 -3.548267 -3.802111 7.483761 -2.355176 4.932680 -16.185932 -3.264521 -1.127515 -9.815796 3.484561 -1.584085 5.701578 -2.586737 1.107253 -14.679378 18.227091 25.378866 -1.124278 -34.860876 -14.715557 13.065155 10.066710 -6.904009 14.502721 4.532498 4.558525 7.568441 3.657602 11.177711 -0.000000 0.000000 0.000000 0.000000 0.000000 0.000000 0.000000 -16.371381 -20.532503 -5.234004 34.573986 9.645621 2.032168 -10.575676 8.886740 7.067922 -2.036222 2.971235 3.481031 -1.743180 -10.183997 -0.000000 0.000000 0.000000 0.000000 0.000000 0.000000 0.000000 
-6.289230 17.298050 -23.114250 175.114309 89.880331 -175.170979 5.627309 17.235410 1.374624 -26.102587 -10.891498 -5.834755 0.002164 -0.921915 12.572203 20.180478 -0.582897 -4.143002 -1.390256 -0.512243 -7.169575 -5.467649 -14.393838 2.802938 23.104802 10.340384 -4.361334 1.660575 0.675793 6.811694 -17.208008 2.299129 -9.103366 2.148100 -1.141775 -6.539800 5.085155 -3.135545 -0.917261 -3.555360 -3.803797 7.481675 -2.351475 4.939070 -16.211190 -3.262889 -1.126331 -9.807187 3.486542 -1.583668 5.713935 -2.586331 1.105045 -14.673408 18.212816 25.401476 -1.136669 -34.851199 -14.763523 13.093397 10.071576 -6.863439 14.551878 4.558427 4.589388 7.606527 3.679192 11.181075 -0.000000 0.000000 0.000000 0.000000 0.000000 0.000000 0.000000 -16.353039 -20.550358 -5.251977 34.566451 9.661105 2.035322 -10.580905 8.878691 7.084178 -2.034896 2.978130 3.490223 -1.740910 -10.184400 0.000000 0.000000 0.000000 0.000000 0.000000 0.000000 0.000000 
-6.288495 17.297900 -23.113500 175.115624 89.869560 -175.173011 5.623629 17.244877 1.374528 -26.096268 -10.877065 -5.839618 -0.002892 -0.917233 12.577399 20.198699 -0.599862 -4.156206 -1.381551 -0.516710 -7.165074 -5.470548 -14.401375 2.804076 23.110339 10.332331 -4.353386 1.661682 0.675607 6.804674 -17.217262 2.304746 -9.109699 2.146777 -1.141061 -6.539646 5.083911 -3.135296 -0.919386 -3.552465 -3.803195 7.492242 -2.355481 4.931518 -16.204527 -3.266044 -1.126475 -9.816113 3.486346 -1.583055 5.732285 -2.585848 1.105614 -14.661892 18.211277 25.395727 -1.116792 -34.828701 -14.736318 13.103124 10.071491 -6.941212 14.494689 4.537815 4.550178 7.572727 3.661186 11.176135 -0.000000 0.000000 0.000000 0.000000 0.000000 0.000000 0.000000 -16.353680 -20.554627 -5.255078 34.577745 9.660253 2.031568 -10.577843 8.883555 7.084088 -2.026386 2.998158 3.484736 -1.732474 -10.181000 -0.000000 0.000000 0.000000 0.000000 0.000000 0.000000 0.000000 
-6.288390 17.298050 -23.113050 175.112089 89.864920 -175.169961 5.625509 17.242703 1.368434 -26.099637 -10.876655 -5.839420 -0.002707 -0.919008 12.574261 20.194589 -0.600200 -4.150360 -1.386080 -0.516744 -7.170400 -5.467610 -14.396121 2.801987 23.107904 10.337454 -4.356507 1.661163 0.673504 6.803975 -17.220813 2.294668 -9.104796 2.143162 -1.141403 -6.534185 5.083913 -3.139160 -0.908040 -3.559250 -3.806940 7.482958 -2.352693 4.940449 -16.215222 -3.265973 -1.122361 -9.813611 3.487092 -1.579129 5.749927 -2.585206 1.106752 -14.652607 18.205890 25.403714 -1.122331 -34.819063 -14.755120 13.112925 10.069051 -6.937589 14.506475 4.526145 4.572218 7.575088 3.648808 11.180421 -0.000000 0.000000 0.000000 0.000000 0.000000 0.000000 0.000000 -16.343781 -20.558605 -5.261694 34.572232 9.659208 2.026971 -10.581984 8.881997 7.081881 -2.033428 3.001535 3.488324 -1.739202 -10.181225 0.000000 0.000000 0.000000 0.000000 0.000000 0.000000 0.000000 
-6.287955 17.298350 -23.112450 175.108625 89.865590 -175.167285 5.630268 17.226729 1.369173 -26.105304 -10.890716 -5.825983 0.001882 -0.923250 12.550932 20.178608 -0.571029 -4.128061 -1.390916 -0.509981 -7.165090 -5.464082 -14.391322 2.799911 23.103517 10.338963 -4.360549 1.662907 0.673964 6.803709 -17.218067 2.295362 -9.095685 2.147933 -1.140016 -6.546036 5.084867 -3.137295 -0.905158 -3.565008 -3.805200 7.484785 -2.352020 4.944793 -16.232268 -3.265888 -1.127628 -9.808908 3.484271 -1.583997 5.772241 -2.585745 1.106843 -14.639838 18.197865 25.415070 -1.131390 -34.817403 -14.766792 13.111434 10.076804 -6.956193 14.493213 4.537323 4.569167 7.573649 3.660173 11.179682 -0.000000 0.000000 0.000000 0.000000 0.000000 0.000000 0.000000 -16.334239 -20.563513 -5.273404 34.570094 9.662145 2.019275 -10.582450 8.869605 7.085277 -2.037892 3.012453 3.492560 -1.743207 -10.180438 0.000000 0.000000 0.000000 0.000000 0.000000 0.000000 0.000000 
